<svg width="1096" height="1096" viewBox="0 0 1096 1096" fill="none" xmlns="http://www.w3.org/2000/svg">
<path d="M547.541 0C439.247 0 333.386 32.1127 243.343 92.2772C153.301 152.442 83.1213 237.956 41.6793 338.006C0.237237 438.056 -10.6059 548.148 10.5211 654.36C31.648 760.573 83.7962 858.135 160.371 934.71C236.946 1011.28 334.508 1063.43 440.721 1084.56C546.933 1105.69 657.025 1094.84 757.075 1053.4C857.125 1011.96 942.639 941.78 1002.8 851.738C1062.97 761.695 1095.08 655.834 1095.08 547.54C1095.04 402.337 1037.34 263.093 934.663 160.418C831.988 57.7438 692.744 0.0428645 547.541 0ZM624.756 881.304V985.848H478.492V879.849C431.681 874.365 388.22 852.817 355.519 818.877C322.817 784.937 302.899 740.706 299.158 693.724H406.775C412.273 751.211 451.648 796.084 551.826 796.084C659.119 796.084 683.213 742.398 683.213 709.005C683.213 663.565 658.957 620.875 537.03 591.848C401.277 559.022 308.133 502.909 308.133 390.927C311.211 346.233 330.003 304.069 361.182 271.899C392.361 239.729 433.916 219.627 478.492 215.151V109.476H624.675V216.202C667.996 224.752 707.091 247.855 735.475 281.68C763.859 315.506 779.824 358.019 780.722 402.166H673.43C671.085 341.121 638.744 299.158 551.907 299.158C469.76 299.158 420.439 336.755 420.439 389.31C420.439 435.316 456.014 465.393 566.622 493.854C677.23 522.314 795.519 569.937 795.519 707.954C794.953 808.131 720.001 862.869 624.675 880.981L624.756 881.304Z" fill="#2D2D38"/>
</svg>
