<svg width="1137" height="1263" viewBox="0 0 1137 1263" fill="none" xmlns="http://www.w3.org/2000/svg">
<path d="M884.341 694.439H568.511V1010.06H884.341V694.439ZM821.193 0V126.212H315.83V0H189.534V126.212H125.932C109.372 126.212 92.9756 129.48 77.6832 135.83C62.3909 142.179 48.504 151.485 36.8198 163.212C25.1357 174.939 15.8844 188.857 9.59698 204.166C3.30958 219.476 0.109938 235.876 0.181729 252.424L0 1136.27C0.0962094 1169.68 13.4448 1201.69 37.1193 1225.28C60.7939 1248.87 92.8627 1262.12 126.295 1262.12H1010.64C1044.06 1261.88 1076.04 1248.51 1099.68 1224.89C1123.31 1201.27 1136.69 1169.31 1136.93 1135.91V252.515C1136.69 219.115 1123.31 187.15 1099.68 163.532C1076.04 139.914 1044.06 126.541 1010.64 126.303H947.034V0H821.193ZM1010.73 1136.27H126.295V441.924H1010.64L1010.73 1136.27Z" fill="#2D2D38"/>
</svg>
