<svg width="1181" height="1182" viewBox="0 0 1181 1182" fill="none" xmlns="http://www.w3.org/2000/svg">
<path d="M833.962 1025.37C802.105 1030.72 769.859 1033.42 737.557 1033.45C638.862 1034.62 541.749 1008.56 456.873 958.137C464.407 958.137 471.765 959.682 479.39 959.682C618.251 965.451 754.928 923.711 866.917 841.337C978.906 758.962 1059.53 640.867 1095.49 506.506C1148.19 557.773 1178.58 627.757 1180.09 701.295C1179.03 769.953 1152.42 835.746 1105.47 885.818H1106.38V1181.09L833.962 1025.37ZM73.8 621.708C26.4827 559.724 0.58176 484.025 0 406.023C0 181.706 214.595 0 479.39 0C744.184 0 958.779 181.706 958.779 406.023C958.779 630.339 744.184 812.045 479.39 812.045C408.592 812.158 338.438 798.584 272.783 772.07L73.7114 885.909L73.8 621.708Z" fill="#2D2D38"/>
</svg>
