<svg width="1301" height="1033" viewBox="0 0 1301 1033" fill="none" xmlns="http://www.w3.org/2000/svg">
<path d="M931.384 904.289C1003.24 878.905 1065.45 831.844 1109.46 769.571C1153.47 707.298 1177.1 632.906 1177.1 556.622C1177.11 480.347 1153.48 405.934 1109.47 343.673C1065.46 281.413 1003.24 234.356 931.384 209V80.2274C1036.89 107.452 1130.36 169.019 1197.11 255.237C1263.85 341.455 1300.08 447.452 1300.09 556.533C1300.08 665.615 1263.85 771.568 1197.11 857.786C1130.36 944.004 1036.89 1005.57 931.384 1032.8V904.289ZM0.088642 499.824C0.088642 367.262 52.6851 240.124 146.309 146.388C239.933 52.6533 366.916 0 499.321 0C631.725 0 758.708 52.6533 852.332 146.388C945.956 240.124 998.553 367.262 998.553 499.824C998.553 632.386 945.956 759.524 852.332 853.26C758.708 946.995 631.725 999.648 499.321 999.648C433.753 999.66 368.827 986.733 308.247 961.62C247.667 936.507 192.621 899.674 146.254 853.26C99.8862 806.845 63.1052 751.766 38.0108 691.119C12.9164 630.471 -1.08376e-06 565.47 0 499.824H0.088642Z" fill="#2D2D38"/>
</svg>
