<svg width="960" height="1173" viewBox="0 0 960 1173" fill="none" xmlns="http://www.w3.org/2000/svg">
<path d="M479.546 0C352.362 0 230.388 50.5203 140.456 140.447C50.5236 230.374 0.000233033 352.341 0.000233033 479.516V852.413C-0.0356571 873.414 4.07446 894.215 12.0949 913.623C20.1153 933.032 31.8883 950.667 46.7387 965.516C61.5892 980.366 79.225 992.138 98.6349 1000.16C118.045 1008.18 138.847 1012.29 159.849 1012.25H319.697V586.045H106.536V479.516C106.536 430.541 116.183 382.045 134.926 336.798C153.669 291.55 181.141 250.437 215.774 215.807C250.407 181.176 291.523 153.705 336.773 134.963C382.023 116.221 430.522 106.574 479.5 106.574C528.479 106.574 576.977 116.221 622.228 134.963C667.478 153.705 708.593 181.176 743.226 215.807C777.859 250.437 805.331 291.55 824.075 336.798C842.818 382.045 852.465 430.541 852.465 479.516V586.045H639.303V1012.25H852.374V1065.56H479.546V1172.09H799.243C820.244 1172.13 841.047 1168.02 860.456 1160C879.866 1151.98 897.502 1140.2 912.353 1125.36C927.203 1110.51 938.976 1092.87 946.997 1073.46C955.017 1054.05 959.127 1033.25 959.091 1012.25V479.516C959.091 416.545 946.687 354.191 922.588 296.013C898.488 237.836 863.165 184.974 818.636 140.447C774.106 95.9199 721.241 60.599 663.06 36.501C604.879 12.4031 542.52 0 479.546 0Z" fill="#2D2D38"/>
</svg>
