<svg width="1239" height="1013" viewBox="0 0 1239 1013" fill="none" xmlns="http://www.w3.org/2000/svg">
<path d="M1125.4 0.00179624H112.513C97.7242 -0.0461862 83.072 2.83161 69.3997 8.46954C55.7274 14.1075 43.305 22.3942 32.8477 32.8527C22.3904 43.3112 14.1047 55.735 8.46737 69.4088C2.83008 83.0827 -0.0473868 97.7366 0.000590204 112.527V787.86C0.000590204 802.637 2.91081 817.27 8.56509 830.922C14.2194 844.574 22.507 856.979 32.9547 867.428C43.4025 877.877 55.8057 886.165 69.4564 891.82C83.107 897.475 97.7377 900.386 112.513 900.386H394.021V1012.91H844.525V900.476H1126.03C1155.79 900.356 1184.28 888.445 1205.27 867.353C1226.25 846.261 1238.02 817.708 1238 787.951L1238.55 112.618C1238.56 97.7796 1235.64 83.0854 1229.95 69.3811C1224.26 55.6768 1215.92 43.233 1205.4 32.7661C1194.88 22.2992 1182.4 14.0158 1168.67 8.39272C1154.94 2.76966 1140.23 -0.0820411 1125.4 0.00179624V0.00179624ZM1125.4 787.86H112.513V112.527H1125.4V787.86ZM844.525 450.194L450.141 675.335V225.143L844.525 450.194Z" fill="#2D2D38"/>
</svg>
