<svg width="683" height="683" viewBox="0 0 683 683" fill="none" xmlns="http://www.w3.org/2000/svg">
<path d="M341.025 0C273.577 0 207.643 20.0008 151.562 57.4731C95.4806 94.9454 51.7705 148.206 25.9591 210.52C0.147759 272.835 -6.60567 341.403 6.55286 407.556C19.7114 473.708 52.1909 534.473 99.8841 582.166C147.577 629.86 208.342 662.339 274.495 675.498C340.647 688.656 409.216 681.903 471.53 656.091C533.844 630.28 587.105 586.57 624.577 530.489C662.05 474.407 682.05 408.474 682.05 341.025C682.024 250.588 646.086 163.862 582.137 99.9134C518.188 35.9646 431.463 0.0266974 341.025 0ZM389.117 548.903V614.017H298.019V547.997C268.864 544.582 241.796 531.161 221.428 510.022C201.06 488.883 188.655 461.335 186.325 432.073H253.352C256.776 467.877 281.301 495.826 343.694 495.826C410.519 495.826 425.526 462.388 425.526 441.59C425.526 413.289 410.419 386.7 334.479 368.621C249.927 348.176 191.915 313.227 191.915 243.481C193.832 215.645 205.536 189.384 224.955 169.347C244.374 149.31 270.256 136.79 298.019 134.003V68.1849H389.067V134.658C416.048 139.982 440.398 154.372 458.077 175.439C475.755 196.507 485.699 222.985 486.258 250.481H419.433C417.973 212.461 397.829 186.325 343.745 186.325C292.581 186.325 261.862 209.742 261.862 242.474C261.862 271.128 284.02 289.861 352.91 307.587C421.8 325.313 495.474 354.974 495.474 440.936C495.121 503.329 448.439 537.422 389.067 548.702L389.117 548.903Z" fill="black"/>
</svg>
